<?xml version="1.0" encoding="UTF-8" standalone="no"?>
<svg
   xmlns:dc="http://purl.org/dc/elements/1.1/"
   xmlns:cc="http://creativecommons.org/ns#"
   xmlns:rdf="http://www.w3.org/1999/02/22-rdf-syntax-ns#"
   xmlns:svg="http://www.w3.org/2000/svg"
   xmlns="http://www.w3.org/2000/svg"
   xmlns:sodipodi="http://sodipodi.sourceforge.net/DTD/sodipodi-0.dtd"
   xmlns:inkscape="http://www.inkscape.org/namespaces/inkscape"
   id="Layer_1"
   data-name="Layer 1"
   viewBox="0 0 100 100"
   version="1.1"
   sodipodi:docname="632.svg"
   inkscape:version="0.92.1 r15371">
  <metadata
     id="metadata49">
    <rdf:RDF>
      <cc:Work
         rdf:about="">
        <dc:format>image/svg+xml</dc:format>
        <dc:type
           rdf:resource="http://purl.org/dc/dcmitype/StillImage" />
      </cc:Work>
    </rdf:RDF>
  </metadata>
  <sodipodi:namedview
     pagecolor="#ffffff"
     bordercolor="#666666"
     borderopacity="1"
     objecttolerance="10"
     gridtolerance="10"
     guidetolerance="10"
     inkscape:pageopacity="0"
     inkscape:pageshadow="2"
     inkscape:window-width="1366"
     inkscape:window-height="703"
     id="namedview47"
     showgrid="false"
     inkscape:zoom="3.337544"
     inkscape:cx="20.550749"
     inkscape:cy="49.97675"
     inkscape:window-x="0"
     inkscape:window-y="0"
     inkscape:window-maximized="1"
     inkscape:current-layer="Layer_1" />
  <defs
     id="defs10">
    <style
       id="style2">.cls-1,.cls-5{fill:none;}.cls-2{clip-path:url(#clip-path);}.cls-3{fill:#58595b;}.cls-4{clip-path:url(#clip-path-2);}.cls-5{stroke:#ebf7fd;stroke-linecap:round;stroke-miterlimit:10;stroke-width:6px;}</style>
    <clipPath
       id="clip-path">
      <path
         class="cls-1"
         d="M205.71,0H134.29A14.33,14.33,0,0,0,120,14.29V85.71A14.33,14.33,0,0,0,134.29,100h71.43A14.33,14.33,0,0,0,220,85.71V14.29A14.33,14.33,0,0,0,205.71,0Z"
         id="path4" />
    </clipPath>
    <clipPath
       id="clip-path-2">
      <path
         class="cls-1"
         d="M325.71,0H254.29A14.33,14.33,0,0,0,240,14.29V85.71A14.33,14.33,0,0,0,254.29,100h71.43A14.33,14.33,0,0,0,340,85.71V14.29A14.33,14.33,0,0,0,325.71,0Z"
         id="path7" />
    </clipPath>
  </defs>
  <title
     id="title12">mist</title>
  <line
     class="cls-5"
     x1="25.1"
     y1="22.4"
     x2="3.65"
     y2="22.4"
     id="line26" />
  <line
     class="cls-5"
     x1="96.35"
     y1="22.4"
     x2="49.85"
     y2="22.4"
     id="line28" />
  <line
     class="cls-5"
     x1="23.98"
     y1="40.8"
     x2="8.1"
     y2="40.8"
     id="line30" />
  <line
     class="cls-5"
     x1="59.23"
     y1="40.8"
     x2="44.85"
     y2="40.8"
     id="line32" />
  <line
     class="cls-5"
     x1="85.6"
     y1="40.8"
     x2="71.1"
     y2="40.8"
     id="line34" />
  <line
     class="cls-5"
     x1="38.48"
     y1="59.2"
     x2="3.65"
     y2="59.2"
     id="line36" />
  <line
     class="cls-5"
     x1="96.35"
     y1="59.2"
     x2="61.98"
     y2="59.2"
     id="line38" />
  <line
     class="cls-5"
     x1="31.6"
     y1="77.6"
     x2="13.23"
     y2="77.6"
     id="line40" />
  <line
     class="cls-5"
     x1="74.73"
     y1="77.6"
     x2="53.85"
     y2="77.6"
     id="line42" />
  <line
     class="cls-5"
     x1="96.35"
     y1="77.6"
     x2="88.1"
     y2="77.6"
     id="line44" />
</svg>
